Coordinates
version=1
nRows=16
nColumns=33
inDegrees=yes

Units are S.I. units (second, meters, Newtons, ...)
Angles are in degrees.

endheader
time	ground_thorax_rot_x	ground_thorax_rot_y	ground_thorax_rot_z	ground_thorax_tx	ground_thorax_ty	ground_thorax_tz	clav_prot_r	clav_elev_r	scapula_abduction_r	scapula_elevation_r	scapula_upward_rot_r	scapula_winging_r	shoulder_elv_r	plane_of_elev_r	axial_rot_r	elbow_flexion_r	pro_sup_r	wrist_flex_r	wrist_dev_r	clav_prot_l	clav_elev_l	scapula_abduction_l	scapula_elevation_l	scapula_upward_rot_l	scapula_winging_l	shoulder_elv_l	plane_of_elev_l	axial_rot_l	elbow_flexion_l	pro_sup_l	wrist_flex_l	wrist_dev_l
     13.37000000	    -38.78211508	     -4.93091218	      7.48886852	    -63.86459960	    839.80296005	    -39.51772655	      8.87053071	    -45.00000000	     41.48776125	    -45.00000000	     24.63770765	  -2276.49113014	  -2618.19698572	    144.28135724	   -179.99999979	   1427.62365751	   -304.11192819	     23.67800550	     18.12017905	      3.68666477	     28.96079695	    -30.18063884	    -45.00000000	    -45.00000000	  -3163.57488021	   -261.24149151	     20.17707902	   -179.99999979	   1796.33996428	    520.58985265	      9.82341032	    -16.20244711
     13.38000000	    -38.84569025	     -4.70140275	      7.03015543	    -64.56489567	    840.99069841	    -39.75424105	      8.94668669	    -45.00000000	     41.37794742	    -45.00000000	     24.47838597	  -2276.37708541	  -2618.38510677	    144.25061875	   -179.99999979	   1427.74596146	   -304.26957763	     24.21171632	     18.27752467	      3.35212297	     29.01760733	    -30.23225241	    -45.00000000	    -45.00000000	  -3163.40487185	   -261.18698468	     20.43905245	   -179.99999979	   1796.29179231	    519.97962737	      9.48411302	    -16.32393040
     13.39000000	    -38.87742898	     -5.19108353	      7.34997963	    -65.23806371	    842.14372949	    -39.98162811	      8.76561825	    -45.00000000	     41.24522003	    -45.00000000	     24.74854512	  -2276.29576072	  -2618.06203370	    144.31448626	   -179.99999979	   1427.64685990	   -304.30878573	     24.03257759	     18.17838207	      3.75846037	     28.97703697	    -30.04100923	    -45.00000000	    -45.00000000	  -3163.47027305	   -261.13275344	     20.11370513	   -179.99999979	   1796.12359855	    519.49197456	      9.56991677	    -16.22425875
     13.40000000	    -38.88787092	     -5.20423602	      7.31634905	    -65.87984351	    843.25147385	    -40.19600249	      8.83968957	    -45.00000000	     41.28701909	    -45.00000000	     24.51189534	  -2276.37035393	  -2617.96723208	    144.30057819	   -179.99999979	   1427.79582317	   -304.35507650	     24.27443570	     18.19060765	      3.47080573	     28.99983416	    -30.15930255	    -45.00000000	    -45.00000000	  -3163.46280902	   -261.16901425	     20.17360354	   -179.99999979	   1796.19248342	    519.01178434	      9.35689509	    -16.26995104
     13.41000000	    -38.94558595	     -5.37232215	      7.24580811	    -66.49414048	    844.31573248	    -40.39768229	      8.84110997	    -45.00000000	     41.17092955	    -45.00000000	     24.36856772	  -2276.24530054	  -2617.99145924	    144.34712947	   -179.99999979	   1427.88998082	   -304.36554467	     24.57057854	     18.20820197	      3.34978582	     29.02130461	    -30.12541548	    -45.00000000	    -45.00000000	  -3163.35706813	   -261.15251005	     20.16002081	   -179.99999979	   1796.05781693	    518.69533204	      9.20942831	    -16.32791559
     13.42000000	    -38.98750994	     -5.23650485	      6.93905011	    -67.07986836	    845.32889553	    -40.58728405	      8.81519066	    -45.00000000	     41.03018264	    -45.00000000	     24.27902683	  -2276.09962463	  -2618.01631344	    144.31639075	   -179.99999979	   1427.94059034	   -304.36014573	     25.02232831	     18.27126925	      3.25415723	     29.07417306	    -30.01236904	    -45.00000000	    -45.00000000	  -3163.33986269	   -260.88835638	     20.47160755	   -179.99999979	   1796.11894860	    518.52545731	      8.88930832	    -16.39145059
     13.43000000	    -39.05073591	     -5.45859447	      6.96810533	    -67.63641100	    846.28170632	    -40.76682207	      8.77233179	    -45.00000000	     40.87011473	    -45.00000000	     24.34261455	  -2276.05374126	  -2617.93137952	    144.31234713	   -179.99999979	   1427.86344534	   -304.25412763	     25.18713693	     18.31416221	      3.32719758	     29.05996846	    -29.93964123	    -45.00000000	    -45.00000000	  -3163.29699758	   -260.88073307	     20.38730794	   -179.99999979	   1795.90043246	    518.45773032	      8.75337484	    -16.48452429
     13.44000000	    -39.09517700	     -5.52090022	      6.79225079	    -68.16584636	    847.16996723	    -40.93998839	      8.73318402	    -45.00000000	     40.87223211	    -45.00000000	     24.22041838	  -2276.00019690	  -2617.97490015	    144.32176482	   -179.99999979	   1428.00607138	   -304.17666508	     25.50260065	     18.26255664	      3.16316801	     29.09183536	    -29.90520457	    -45.00000000	    -45.00000000	  -3163.25156014	   -260.81767240	     20.48685894	   -179.99999979	   1795.86466279	    518.49562536	      8.49073967	    -16.58776522
     13.45000000	    -39.14379224	     -5.76268125	      6.86180658	    -68.66677237	    847.98299074	    -41.10906634	      8.72443832	    -45.00000000	     40.70521319	    -45.00000000	     24.16589612	  -2275.95253418	  -2617.90692897	    144.30585551	   -179.99999979	   1427.96817278	   -304.02433882	     25.70912518	     18.28995421	      3.22670798	     29.07729669	    -29.80559451	    -45.00000000	    -45.00000000	  -3163.26679882	   -260.75371129	     20.44801778	   -179.99999979	   1795.76041771	    518.63512229	      8.31586761	    -16.66638666
     13.46000000	    -39.18953463	     -5.87490314	      6.74830230	    -69.13877021	    848.71660055	    -41.27682543	      8.70714015	    -45.00000000	     40.72598880	    -45.00000000	     23.96874175	  -2275.92828694	  -2617.96705258	    144.31935406	   -179.99999979	   1428.11662180	   -303.90914614	     26.00449518	     18.21800892	      3.04992356	     29.10477134	    -29.79131713	    -45.00000000	    -45.00000000	  -3163.21600248	   -260.71142674	     20.51916264	   -179.99999979	   1795.69763131	    518.87491128	      8.07246205	    -16.79885705
     13.47000000	    -39.24180384	     -6.14069309	      6.84108733	    -69.57771109	    849.36363532	    -41.44491934	      8.72247365	    -45.00000000	     40.57050256	    -45.00000000	     23.83213258	  -2275.88839753	  -2617.91195523	    144.29593944	   -179.99999979	   1428.07252538	   -303.73796452	     26.21039313	     18.23283482	      3.11506376	     29.08518775	    -29.65274324	    -45.00000000	    -45.00000000	  -3163.24148282	   -260.63233797	     20.48406748	   -179.99999979	   1795.59627333	    519.19737394	      7.88796448	    -16.89754101
     13.48000000	    -39.29357449	     -6.24618668	      6.73657046	    -69.97909808	    849.92310066	    -41.61639915	      8.71716495	    -45.00000000	     40.63310518	    -45.00000000	     23.56509280	  -2275.88656157	  -2617.97615171	    144.32188539	   -179.99999979	   1428.20254813	   -303.62005116	     26.48287124	     18.14659750	      2.90906510	     29.11371137	    -29.65732627	    -45.00000000	    -45.00000000	  -3163.17531353	   -260.61514239	     20.55861931	   -179.99999979	   1795.48967103	    519.59662765	      7.66853109	    -17.06545355
     13.49000000	    -39.33507054	     -6.60438569	      6.91702708	    -70.33697717	    850.39293691	    -41.79539932	      8.77082595	    -45.00000000	     40.45993254	    -45.00000000	     23.40457288	  -2275.84762042	  -2617.91181649	    144.26991611	   -179.99999979	   1428.14701734	   -303.44552636	     26.65546365	     18.16631244	      3.03717022	     29.07841293	    -29.48818199	    -45.00000000	    -45.00000000	  -3163.22578375	   -260.51197245	     20.48014103	   -179.99999979	   1795.39497726	    520.06169794	      7.49056494	    -17.16963815
     13.50000000	    -39.42439714	     -6.64743496	      6.74618966	    -70.64481240	    850.77280539	    -41.98816942	      8.75600663	    -45.00000000	     40.62144360	    -45.00000000	     23.08366954	  -2275.90006779	  -2618.06467642	    144.37205814	   -179.99999979	   1428.38429609	   -303.38014607	     26.95470722	     18.00739244	      2.68432141	     29.12727655	    -29.55922192	    -45.00000000	    -45.00000000	  -3163.10026899	   -260.53746934	     20.58729830	   -179.99999979	   1795.25745603	    520.58507679	      7.29684332	    -17.37405819
     13.51000000	    -39.43936113	     -7.18847676	      7.16615133	    -70.89852455	    851.06118624	    -42.20241596	      8.90787751	    -45.00000000	     40.24318017	    -45.00000000	     22.97852908	  -2275.83846523	  -2617.90213687	    144.20466734	   -179.99999979	   1428.12497529	   -303.15012785	     27.07566803	     18.19354368	      3.13261415	     29.04369746	    -29.21878830	    -45.00000000	    -45.00000000	  -3163.32377993	   -260.35819339	     20.44424080	   -179.99999979	   1795.32081196	    521.14444540	      7.06221814	    -17.41210676
     13.52000000	    -39.46407593	     -7.26812510	      6.99968308	    -71.09877019	    851.25964977	    -42.44917254	      8.96350940	    -45.00000000	     40.45521017	    -45.00000000	     22.56250708	  -2275.87398997	  -2618.11297293	    144.28515380	   -179.99999979	   1428.44808150	   -303.07952056	     27.34211719	     17.99978401	      2.69094846	     29.11214124	    -29.30274090	    -45.00000000	    -45.00000000	  -3163.22792561	   -260.49685559	     20.59307019	   -179.99999979	   1795.33209017	    521.96169119	      6.95207102	    -17.54942694
